<svg id="visual" viewBox="0 0 1200 900" width="1200" height="900" xmlns="http://www.w3.org/2000/svg" xmlns:xlink="http://www.w3.org/1999/xlink" version="1.1"><rect x="0" y="0" width="1200" height="900" fill="#235cb3"></rect><path d="M610 0L975 0L975 45L1007 45L1007 90L441 90L441 135L669 135L669 180L620 180L620 225L1052 225L1052 270L429 270L429 315L830 315L830 360L628 360L628 405L871 405L871 450L463 450L463 495L1027 495L1027 540L988 540L988 585L707 585L707 630L434 630L434 675L498 675L498 720L1071 720L1071 765L508 765L508 810L956 810L956 855L609 855L609 900L0 900L0 855L0 855L0 810L0 810L0 765L0 765L0 720L0 720L0 675L0 675L0 630L0 630L0 585L0 585L0 540L0 540L0 495L0 495L0 450L0 450L0 405L0 405L0 360L0 360L0 315L0 315L0 270L0 270L0 225L0 225L0 180L0 180L0 135L0 135L0 90L0 90L0 45L0 45L0 0L0 0Z" fill="#00aaff"></path><path d="M290 0L557 0L557 45L427 45L427 90L428 90L428 135L328 135L328 180L927 180L927 225L539 225L539 270L918 270L918 315L366 315L366 360L623 360L623 405L899 405L899 450L367 450L367 495L560 495L560 540L966 540L966 585L439 585L439 630L747 630L747 675L248 675L248 720L785 720L785 765L515 765L515 810L597 810L597 855L275 855L275 900L0 900L0 855L0 855L0 810L0 810L0 765L0 765L0 720L0 720L0 675L0 675L0 630L0 630L0 585L0 585L0 540L0 540L0 495L0 495L0 450L0 450L0 405L0 405L0 360L0 360L0 315L0 315L0 270L0 270L0 225L0 225L0 180L0 180L0 135L0 135L0 90L0 90L0 45L0 45L0 0L0 0Z" fill="#009ff4"></path><path d="M733 0L404 0L404 45L516 45L516 90L626 90L626 135L454 135L454 180L455 180L455 225L544 225L544 270L453 270L453 315L655 315L655 360L723 360L723 405L653 405L653 450L604 450L604 495L528 495L528 540L841 540L841 585L723 585L723 630L812 630L812 675L798 675L798 720L791 720L791 765L666 765L666 810L636 810L636 855L870 855L870 900L0 900L0 855L0 855L0 810L0 810L0 765L0 765L0 720L0 720L0 675L0 675L0 630L0 630L0 585L0 585L0 540L0 540L0 495L0 495L0 450L0 450L0 405L0 405L0 360L0 360L0 315L0 315L0 270L0 270L0 225L0 225L0 180L0 180L0 135L0 135L0 90L0 90L0 45L0 45L0 0L0 0Z" fill="#0093e9"></path><path d="M751 0L595 0L595 45L363 45L363 90L510 90L510 135L519 135L519 180L524 180L524 225L736 225L736 270L266 270L266 315L634 315L634 360L381 360L381 405L512 405L512 450L473 450L473 495L546 495L546 540L321 540L321 585L568 585L568 630L647 630L647 675L778 675L778 720L519 720L519 765L211 765L211 810L527 810L527 855L778 855L778 900L0 900L0 855L0 855L0 810L0 810L0 765L0 765L0 720L0 720L0 675L0 675L0 630L0 630L0 585L0 585L0 540L0 540L0 495L0 495L0 450L0 450L0 405L0 405L0 360L0 360L0 315L0 315L0 270L0 270L0 225L0 225L0 180L0 180L0 135L0 135L0 90L0 90L0 45L0 45L0 0L0 0Z" fill="#0088de"></path><path d="M624 0L510 0L510 45L706 45L706 90L466 90L466 135L165 135L165 180L648 180L648 225L293 225L293 270L448 270L448 315L455 315L455 360L309 360L309 405L656 405L656 450L491 450L491 495L297 495L297 540L473 540L473 585L691 585L691 630L608 630L608 675L333 675L333 720L503 720L503 765L282 765L282 810L214 810L214 855L180 855L180 900L0 900L0 855L0 855L0 810L0 810L0 765L0 765L0 720L0 720L0 675L0 675L0 630L0 630L0 585L0 585L0 540L0 540L0 495L0 495L0 450L0 450L0 405L0 405L0 360L0 360L0 315L0 315L0 270L0 270L0 225L0 225L0 180L0 180L0 135L0 135L0 90L0 90L0 45L0 45L0 0L0 0Z" fill="#007dd3"></path><path d="M288 0L306 0L306 45L263 45L263 90L154 90L154 135L431 135L431 180L238 180L238 225L520 225L520 270L370 270L370 315L506 315L506 360L160 360L160 405L458 405L458 450L435 450L435 495L310 495L310 540L219 540L219 585L280 585L280 630L271 630L271 675L588 675L588 720L313 720L313 765L138 765L138 810L291 810L291 855L567 855L567 900L0 900L0 855L0 855L0 810L0 810L0 765L0 765L0 720L0 720L0 675L0 675L0 630L0 630L0 585L0 585L0 540L0 540L0 495L0 495L0 450L0 450L0 405L0 405L0 360L0 360L0 315L0 315L0 270L0 270L0 225L0 225L0 180L0 180L0 135L0 135L0 90L0 90L0 45L0 45L0 0L0 0Z" fill="#0072c8"></path><path d="M257 0L142 0L142 45L410 45L410 90L122 90L122 135L274 135L274 180L509 180L509 225L295 225L295 270L219 270L219 315L131 315L131 360L198 360L198 405L151 405L151 450L267 450L267 495L340 495L340 540L408 540L408 585L111 585L111 630L504 630L504 675L200 675L200 720L343 720L343 765L414 765L414 810L460 810L460 855L252 855L252 900L0 900L0 855L0 855L0 810L0 810L0 765L0 765L0 720L0 720L0 675L0 675L0 630L0 630L0 585L0 585L0 540L0 540L0 495L0 495L0 450L0 450L0 405L0 405L0 360L0 360L0 315L0 315L0 270L0 270L0 225L0 225L0 180L0 180L0 135L0 135L0 90L0 90L0 45L0 45L0 0L0 0Z" fill="#0067bd"></path><path d="M276 0L245 0L245 45L308 45L308 90L335 90L335 135L375 135L375 180L420 180L420 225L236 225L236 270L344 270L344 315L151 315L151 360L176 360L176 405L341 405L341 450L93 450L93 495L325 495L325 540L399 540L399 585L374 585L374 630L134 630L134 675L215 675L215 720L420 720L420 765L284 765L284 810L328 810L328 855L423 855L423 900L0 900L0 855L0 855L0 810L0 810L0 765L0 765L0 720L0 720L0 675L0 675L0 630L0 630L0 585L0 585L0 540L0 540L0 495L0 495L0 450L0 450L0 405L0 405L0 360L0 360L0 315L0 315L0 270L0 270L0 225L0 225L0 180L0 180L0 135L0 135L0 90L0 90L0 45L0 45L0 0L0 0Z" fill="#005cb1"></path><path d="M351 0L194 0L194 45L171 45L171 90L69 90L69 135L216 135L216 180L184 180L184 225L88 225L88 270L175 270L175 315L79 315L79 360L158 360L158 405L214 405L214 450L84 450L84 495L82 495L82 540L178 540L178 585L327 585L327 630L280 630L280 675L219 675L219 720L273 720L273 765L262 765L262 810L78 810L78 855L145 855L145 900L0 900L0 855L0 855L0 810L0 810L0 765L0 765L0 720L0 720L0 675L0 675L0 630L0 630L0 585L0 585L0 540L0 540L0 495L0 495L0 450L0 450L0 405L0 405L0 360L0 360L0 315L0 315L0 270L0 270L0 225L0 225L0 180L0 180L0 135L0 135L0 90L0 90L0 45L0 45L0 0L0 0Z" fill="#0052a6"></path><path d="M145 0L127 0L127 45L217 45L217 90L133 90L133 135L52 135L52 180L77 180L77 225L101 225L101 270L166 270L166 315L77 315L77 360L71 360L71 405L230 405L230 450L40 450L40 495L33 495L33 540L98 540L98 585L257 585L257 630L259 630L259 675L262 675L262 720L245 720L245 765L151 765L151 810L186 810L186 855L167 855L167 900L0 900L0 855L0 855L0 810L0 810L0 765L0 765L0 720L0 720L0 675L0 675L0 630L0 630L0 585L0 585L0 540L0 540L0 495L0 495L0 450L0 450L0 405L0 405L0 360L0 360L0 315L0 315L0 270L0 270L0 225L0 225L0 180L0 180L0 135L0 135L0 90L0 90L0 45L0 45L0 0L0 0Z" fill="#00479a"></path><path d="M52 0L65 0L65 45L71 45L71 90L173 90L173 135L127 135L127 180L17 180L17 225L132 225L132 270L77 270L77 315L20 315L20 360L175 360L175 405L167 405L167 450L95 450L95 495L154 495L154 540L58 540L58 585L146 585L146 630L41 630L41 675L123 675L123 720L72 720L72 765L86 765L86 810L78 810L78 855L119 855L119 900L0 900L0 855L0 855L0 810L0 810L0 765L0 765L0 720L0 720L0 675L0 675L0 630L0 630L0 585L0 585L0 540L0 540L0 495L0 495L0 450L0 450L0 405L0 405L0 360L0 360L0 315L0 315L0 270L0 270L0 225L0 225L0 180L0 180L0 135L0 135L0 90L0 90L0 45L0 45L0 0L0 0Z" fill="#003d8f"></path></svg>